<svg xmlns="http://www.w3.org/2000/svg" width="1100" height="500" viewBox="0 0 1100 500"><defs><marker id="a" markerWidth="10" markerHeight="10" refX="8" refY="5" orient="auto"><path d="M0,0 L10,5 L0,10 Z" fill="#0284c7"/></marker><style>.t{font-family:Arial,'Noto Sans JP',sans-serif;fill:#111827}.h{font-size:28px;font-weight:700}.s{font-size:17px}.box{fill:#fff;stroke:#7dd3fc;stroke-width:2;rx:18}.arrow{stroke:#0284c7;stroke-width:3;fill:none;marker-end:url(#a)}</style></defs><rect width="1100" height="500" fill="#f0f9ff"/><text x="40" y="55" class="t h">GitHub Actionsの実行手順</text><rect x="70" y="120" width="210" height="100" class="box"/><text x="105" y="160" class="t s">repo上部の</text><text x="105" y="190" class="t s">Actionsを押す</text><rect x="330" y="120" width="250" height="100" class="box"/><text x="365" y="160" class="t s">Property OCR Pipeline</text><text x="365" y="190" class="t s">を選ぶ</text><rect x="630" y="120" width="210" height="100" class="box"/><text x="665" y="160" class="t s">Run workflow</text><text x="665" y="190" class="t s">を押す</text><rect x="890" y="120" width="170" height="100" class="box"/><text x="920" y="160" class="t s">完了後</text><text x="920" y="190" class="t s">artifact取得</text><path d="M280 170 H330" class="arrow"/><path d="M580 170 H630" class="arrow"/><path d="M840 170 H890" class="arrow"/><rect x="140" y="315" width="820" height="80" fill="#ffffff" stroke="#bae6fd" rx="18"/><text x="175" y="365" class="t s">ダウンロードするartifact名: property-ocr-outputs</text></svg>