<svg xmlns="http://www.w3.org/2000/svg" width="1100" height="420" viewBox="0 0 1100 420"><defs><marker id="a" markerWidth="10" markerHeight="10" refX="8" refY="5" orient="auto"><path d="M0,0 L10,5 L0,10 Z" fill="#2563eb"/></marker><style>.t{font-family:Arial,'Noto Sans JP',sans-serif;fill:#0f172a}.h{font-size:26px;font-weight:700}.s{font-size:16px}.box{fill:#fff;stroke:#93c5fd;stroke-width:2;rx:18}.arrow{stroke:#2563eb;stroke-width:3;fill:none;marker-end:url(#a)}</style></defs><rect width="1100" height="420" fill="#f8fafc"/><text x="40" y="55" class="t h">完成イメージ: Driveに入れるだけで、SQLで取れるDBまで作る</text><rect x="45" y="120" width="190" height="130" class="box"/><text x="78" y="162" class="t h" font-size="22">1. Drive</text><text x="70" y="198" class="t s">物件資料を入れる</text><text x="70" y="222" class="t s">PDF / Excel / CSV</text><rect x="300" y="120" width="190" height="130" class="box"/><text x="334" y="162" class="t h" font-size="22">2. Actions</text><text x="325" y="198" class="t s">自動で取得・解析</text><text x="325" y="222" class="t s">毎日/手動実行</text><rect x="555" y="120" width="190" height="130" class="box"/><text x="604" y="162" class="t h" font-size="22">3. DB</text><text x="585" y="198" class="t s">property_ocr.db</text><text x="585" y="222" class="t s">SQLで検索</text><rect x="810" y="120" width="225" height="130" class="box"/><text x="852" y="162" class="t h" font-size="22">4. GPT/Excel</text><text x="838" y="198" class="t s">ランキング確認</text><text x="838" y="222" class="t s">融資説明資料化</text><path d="M235 185 H300" class="arrow"/><path d="M490 185 H555" class="arrow"/><path d="M745 185 H810" class="arrow"/><rect x="210" y="310" width="680" height="56" fill="#ecfeff" stroke="#67e8f9" rx="18"/><text x="244" y="346" class="t s">最初に1回だけ必要: Googleサービスアカウント作成 → Drive共有 → GitHub Secrets登録</text></svg>