<svg xmlns="http://www.w3.org/2000/svg" width="1100" height="560" viewBox="0 0 1100 560"><defs><marker id="a" markerWidth="10" markerHeight="10" refX="8" refY="5" orient="auto"><path d="M0,0 L10,5 L0,10 Z" fill="#4f46e5"/></marker><style>.t{font-family:Arial,'Noto Sans JP',sans-serif;fill:#111827}.h{font-size:28px;font-weight:700}.s{font-size:17px}.box{fill:#fff;stroke:#a5b4fc;stroke-width:2;rx:18}.secret{fill:#eef2ff;stroke:#818cf8;stroke-width:2;rx:14}.arrow{stroke:#4f46e5;stroke-width:3;fill:none;marker-end:url(#a)}</style></defs><rect width="1100" height="560" fill="#f8fafc"/><text x="40" y="55" class="t h">GitHub Secretsの登録場所</text><rect x="50" y="110" width="180" height="82" class="box"/><text x="92" y="158" class="t s">Settings</text><rect x="280" y="110" width="230" height="82" class="box"/><text x="310" y="148" class="t s">Secrets and variables</text><text x="365" y="172" class="t s">→ Actions</text><rect x="560" y="110" width="220" height="82" class="box"/><text x="600" y="158" class="t s">Repository secrets</text><rect x="830" y="110" width="220" height="82" class="box"/><text x="870" y="158" class="t s">New repository secret</text><path d="M230 151 H280" class="arrow"/><path d="M510 151 H560" class="arrow"/><path d="M780 151 H830" class="arrow"/><rect x="150" y="270" width="360" height="130" class="secret"/><text x="180" y="315" class="t h" font-size="22">1つ目</text><text x="180" y="350" class="t s">Name: GOOGLE_SERVICE_ACCOUNT_JSON</text><text x="180" y="378" class="t s">Secret: JSONファイルの中身全文</text><rect x="590" y="270" width="360" height="130" class="secret"/><text x="620" y="315" class="t h" font-size="22">2つ目</text><text x="620" y="350" class="t s">Name: TARGET_DRIVE_FOLDER_ID</text><text x="620" y="378" class="t s">Secret: DriveフォルダID</text><text x="210" y="470" class="t s">Secretsは値をあとから画面で見返せません。間違えたら削除して作り直せばOKです。</text></svg>