<svg xmlns="http://www.w3.org/2000/svg" width="1100" height="520" viewBox="0 0 1100 520"><defs><marker id="a" markerWidth="10" markerHeight="10" refX="8" refY="5" orient="auto"><path d="M0,0 L10,5 L0,10 Z" fill="#16a34a"/></marker><style>.t{font-family:Arial,'Noto Sans JP',sans-serif;fill:#111827}.h{font-size:28px;font-weight:700}.s{font-size:17px}.box{fill:#fff;stroke:#86efac;stroke-width:2;rx:18}.num{fill:#16a34a;font-size:28px;font-weight:700}.arrow{stroke:#16a34a;stroke-width:3;fill:none;marker-end:url(#a)}</style></defs><rect width="1100" height="520" fill="#f0fdf4"/><text x="40" y="55" class="t h">Google Cloud側の準備</text><rect x="60" y="110" width="220" height="100" class="box"/><text x="85" y="150" class="t num">1</text><text x="125" y="150" class="t s">プロジェクトを選ぶ</text><text x="125" y="180" class="t s">または新規作成</text><rect x="330" y="110" width="220" height="100" class="box"/><text x="355" y="150" class="t num">2</text><text x="395" y="150" class="t s">Drive APIを有効化</text><text x="395" y="180" class="t s">APIとサービス</text><rect x="600" y="110" width="220" height="100" class="box"/><text x="625" y="150" class="t num">3</text><text x="665" y="150" class="t s">サービスアカウント作成</text><text x="665" y="180" class="t s">IAMと管理</text><rect x="870" y="110" width="190" height="100" class="box"/><text x="895" y="150" class="t num">4</text><text x="935" y="150" class="t s">JSONキー発行</text><text x="935" y="180" class="t s">鍵タブ</text><path d="M280 160 H330" class="arrow"/><path d="M550 160 H600" class="arrow"/><path d="M820 160 H870" class="arrow"/><rect x="110" y="285" width="880" height="120" fill="#ffffff" stroke="#bbf7d0" rx="18"/><text x="145" y="330" class="t h" font-size="22">重要</text><text x="145" y="365" class="t s">JSONキーはパスワードと同じです。GitHubのコードやREADMEには貼らず、GitHub Secretsにだけ入れます。</text></svg>